# xmcd
#
# Track frame offsets:
#	150
#	4989
#	22987
#	40154
#	43508
#	72521
#	75266
#	86727
#	101959
#	104876
#	118509
#	121809
#	137909
#	146258
#	163456
#	180027
#	181747
#	207332
#	217619
#
# Disc length: 3261 seconds
#
# Revision: 1
# Processed by: cddbd v1.5.2PL0 Copyright (c) Steve Scherf et al.
# Submitted via: audiograbber 1.83.01
#
DISCID=000cbb13
DTITLE=Various Artist - The Amazing Zigzag Concert [CD5]
DYEAR=2010
DGENRE=Country Rock
TTITLE0=M.C. - Introduction
TTITLE1=Michael Nesmith - Joanne
TTITLE2=Michael Nesmith - Some Of Shelly's Blues
TTITLE3=Michael Nesmith - 'The Beginning of the Change'
TTITLE4=Michael Nesmith - Silver Moon
TTITLE5=Michael Nesmith - Introduction: Different Drum
TTITLE6=Michael Nesmith - Different Drum
TTITLE7=Michael Nesmith - Propinquity
TTITLE8=Michael Nesmith - Introduction: Grand Ennui
TTITLE9=Michael Nesmith - Grand Ennui
TTITLE10=Michael Nesmith - Introduction: Wax Minute
TTITLE11=Michael Nesmith - Wax Minute
TTITLE12=Michael Nesmith - 'The Nature of Consciousness'
TTITLE13=Michael Nesmith - Tomorrow And Me
TTITLE14=Michael Nesmith - Upside Of Goodbye
TTITLE15=Michael Nesmith - Introduction: Roll With The Flow
TTITLE16=Michael Nesmith - Roll With The Flow
TTITLE17=Michael Nesmith - Bing Crosby Dream '... Only One Mind'
TTITLE18=Michael Nesmith - Maries's Theme
EXTD=
EXTT0=
EXTT1=
EXTT2=
EXTT3=
EXTT4=
EXTT5=
EXTT6=
EXTT7=
EXTT8=
EXTT9=
EXTT10=
EXTT11=
EXTT12=
EXTT13=
EXTT14=
EXTT15=
EXTT16=
EXTT17=
EXTT18=
PLAYORDER=
